<svg xmlns="http://www.w3.org/2000/svg" xmlns:xlink="http://www.w3.org/1999/xlink" width="250" zoomAndPan="magnify" viewBox="0 0 187.5 112.499997" height="150" preserveAspectRatio="xMidYMid meet" version="1.0"><defs><g/><clipPath id="a807192889"><path d="M 0.164062 0 L 186.835938 0 L 186.835938 112.003906 L 0.164062 112.003906 Z M 0.164062 0 " clip-rule="nonzero"/></clipPath><clipPath id="77aea90cc1"><path d="M 180.476562 3.238281 L 186.835938 3.238281 L 186.835938 62.226562 L 180.476562 62.226562 Z M 180.476562 3.238281 " clip-rule="nonzero"/></clipPath><clipPath id="22aa33c7da"><path d="M 0.164062 2 L 55 2 L 55 102 L 0.164062 102 Z M 0.164062 2 " clip-rule="nonzero"/></clipPath><clipPath id="7b54a2c835"><path d="M 130 2 L 186.835938 2 L 186.835938 102 L 130 102 Z M 130 2 " clip-rule="nonzero"/></clipPath></defs><g clip-path="url(#a807192889)"><path fill="#ffffff" d="M 0.164062 0 L 186.835938 0 L 186.835938 112.003906 L 0.164062 112.003906 Z M 0.164062 0 " fill-opacity="1" fill-rule="nonzero"/><path fill="#ffffff" d="M 0.164062 0 L 186.835938 0 L 186.835938 112.003906 L 0.164062 112.003906 Z M 0.164062 0 " fill-opacity="1" fill-rule="nonzero"/></g><g clip-path="url(#77aea90cc1)"><path fill="#ffffff" d="M 210.714844 19.03125 C 210.804688 19.859375 210.964844 20.667969 211.191406 21.46875 C 211.417969 22.265625 211.710938 23.039062 212.070312 23.789062 C 212.429688 24.535156 212.847656 25.25 213.328125 25.925781 C 213.808594 26.601562 214.34375 27.234375 214.929688 27.824219 C 215.515625 28.410156 216.148438 28.941406 216.824219 29.421875 C 217.503906 29.902344 218.214844 30.320312 218.964844 30.679688 C 219.710938 31.039062 220.484375 31.332031 221.285156 31.558594 C 222.082031 31.789062 222.894531 31.945312 223.71875 32.035156 C 227.710938 32.472656 232.863281 32.757812 239.511719 32.757812 C 232.863281 32.757812 227.710938 33.039062 223.71875 33.476562 C 222.894531 33.566406 222.082031 33.726562 221.285156 33.953125 C 220.484375 34.179688 219.710938 34.472656 218.964844 34.832031 C 218.214844 35.191406 217.503906 35.609375 216.824219 36.089844 C 216.148438 36.570312 215.515625 37.101562 214.929688 37.691406 C 214.34375 38.277344 213.808594 38.910156 213.328125 39.585938 C 212.847656 40.265625 212.429688 40.976562 212.070312 41.726562 C 211.710938 42.472656 211.417969 43.246094 211.191406 44.042969 C 210.964844 44.84375 210.804688 45.65625 210.714844 46.480469 C 210.277344 50.472656 209.996094 55.625 209.996094 62.273438 C 209.996094 55.625 209.710938 50.472656 209.273438 46.480469 C 209.183594 45.65625 209.027344 44.84375 208.796875 44.042969 C 208.570312 43.246094 208.277344 42.472656 207.917969 41.726562 C 207.558594 40.976562 207.140625 40.265625 206.660156 39.585938 C 206.179688 38.910156 205.648438 38.277344 205.0625 37.691406 C 204.472656 37.101562 203.84375 36.570312 203.164062 36.089844 C 202.488281 35.609375 201.773438 35.191406 201.027344 34.832031 C 200.277344 34.472656 199.503906 34.179688 198.707031 33.953125 C 197.90625 33.726562 197.097656 33.566406 196.269531 33.476562 C 192.28125 33.039062 187.128906 32.757812 180.476562 32.757812 C 187.128906 32.757812 192.28125 32.472656 196.269531 32.035156 C 197.097656 31.945312 197.90625 31.789062 198.707031 31.558594 C 199.503906 31.332031 200.277344 31.039062 201.027344 30.679688 C 201.773438 30.320312 202.488281 29.902344 203.164062 29.421875 C 203.839844 28.941406 204.472656 28.410156 205.0625 27.824219 C 205.648438 27.234375 206.179688 26.601562 206.660156 25.925781 C 207.140625 25.25 207.558594 24.535156 207.917969 23.789062 C 208.277344 23.039062 208.570312 22.265625 208.796875 21.46875 C 209.027344 20.667969 209.183594 19.859375 209.273438 19.03125 C 209.710938 15.042969 209.996094 9.890625 209.996094 3.238281 C 209.996094 9.890625 210.277344 15.042969 210.714844 19.03125 Z M 210.714844 19.03125 " fill-opacity="1" fill-rule="nonzero"/></g><g clip-path="url(#22aa33c7da)"><path stroke-linecap="butt" transform="matrix(1.347471, 0, 0, 1.347471, 2.931288, 20.15511)" fill="none" stroke-linejoin="miter" d="M 16.163358 6.566968 L 18.789807 40.348434 C 18.789807 40.693409 18.592678 40.878942 18.204219 40.91083 L 13.516616 41.090565 C 13.20353 41.090565 13.046987 40.948516 13.046987 40.664419 L 12.710708 33.260501 L 7.617253 33.463427 L 5.935862 40.371625 C 5.889479 40.58035 5.8315 40.722398 5.756127 40.797771 C 5.680754 40.873144 5.547403 40.916628 5.353173 40.934022 L 0.709055 41.090565 C 0.410463 41.090565 0.259718 40.948516 0.259718 40.664419 L 10.107451 6.723511 C 10.211813 6.39593 10.41474 6.224892 10.713332 6.207498 L 15.647345 6.027763 C 15.96333 6.045157 16.134368 6.224892 16.163358 6.566968 Z M 11.925093 15.808821 L 8.782631 28.685957 L 12.507782 28.549707 Z M 11.925093 15.808821 " stroke="#ffffff" stroke-width="3.446032" stroke-opacity="1" stroke-miterlimit="4"/></g><path stroke-linecap="butt" transform="matrix(1.347471, 0, 0, 1.347471, 32.067543, 20.15511)" fill="none" stroke-linejoin="miter" d="M 18.697385 11.457497 L 14.928749 11.074835 C 13.569142 11.074835 12.513924 11.405316 11.765995 12.063377 C 10.974581 12.796812 10.391892 14.205701 10.017928 16.292946 C 9.643963 18.377291 9.284494 21.151586 8.939518 24.612932 C 8.597442 28.074279 8.426404 30.573174 8.426404 32.106718 C 8.426404 33.637364 8.672815 34.721571 9.165637 35.35934 C 9.658458 35.994211 10.246945 36.313095 10.925299 36.313095 C 11.606553 36.313095 12.157353 36.304398 12.574802 36.289903 L 14.056165 23.56931 C 14.114144 23.241729 14.308374 23.061994 14.638854 23.033005 L 18.856827 22.876461 C 19.259781 22.890956 19.462707 23.070691 19.462707 23.412767 L 17.57839 40.238274 C 17.517512 40.565855 17.314585 40.754287 16.972509 40.797771 C 14.983829 41.096363 12.560307 41.247108 9.704841 41.247108 C 6.278282 41.247108 4.080878 39.594707 3.10973 36.289903 C 2.840127 35.376734 2.703877 34.472262 2.703877 33.576486 C 2.703877 32.677812 2.735765 31.616796 2.793744 30.39054 C 2.973479 25.992833 3.498189 21.432784 4.364975 16.707495 C 4.947664 13.417187 5.666604 11.106724 6.518895 9.776106 C 7.414671 8.38461 8.49308 7.413461 9.748326 6.859762 C 11.319557 6.169812 13.000948 5.827736 14.795398 5.827736 C 16.589848 5.827736 17.787114 5.877018 18.384298 5.972683 C 18.981482 6.071247 19.320659 6.126327 19.393133 6.140822 C 19.572868 6.2017 19.662735 6.387233 19.662735 6.703219 L 19.169913 10.874808 C 19.109036 11.263267 18.952492 11.457497 18.697385 11.457497 Z M 18.697385 11.457497 " stroke="#ffffff" stroke-width="3.446032" stroke-opacity="1" stroke-miterlimit="4"/><path stroke-linecap="butt" transform="matrix(1.347471, 0, 0, 1.347471, 61.052679, 20.15511)" fill="none" stroke-linejoin="miter" d="M 22.937984 6.566968 L 19.102673 40.371625 C 19.041795 40.7166 18.856262 40.902133 18.540277 40.934022 L 13.91935 41.090565 C 13.591769 41.090565 13.426529 40.948516 13.426529 40.664419 L 15.087627 25.926157 L 9.388291 26.129083 L 7.773576 40.371625 C 7.730092 40.731095 7.535862 40.916628 7.190887 40.934022 L 2.56996 41.090565 C 2.242379 41.090565 2.077139 40.948516 2.077139 40.664419 L 5.935641 6.723511 C 5.99362 6.410425 6.190749 6.239386 6.51833 6.207498 L 11.026198 6.027763 C 11.414657 6.045157 11.608887 6.224892 11.608887 6.566968 L 9.973879 20.855893 L 15.693508 20.655865 L 17.26184 6.723511 C 17.308223 6.39593 17.511149 6.224892 17.86772 6.207498 L 22.355295 6.027763 C 22.743754 6.045157 22.937984 6.224892 22.937984 6.566968 Z M 22.937984 6.566968 " stroke="#ffffff" stroke-width="3.446032" stroke-opacity="1" stroke-miterlimit="4"/><path stroke-linecap="butt" transform="matrix(1.347471, 0, 0, 1.347471, 93.15092, 20.15511)" fill="none" stroke-linejoin="miter" d="M 10.341612 41.336976 C 7.822424 41.336976 5.920713 40.589047 4.633579 39.093188 C 3.349344 37.59733 2.705777 35.727507 2.705777 33.486619 C 2.705777 27.772788 3.27977 22.128532 4.433552 16.550952 C 5.343822 12.167739 6.607764 9.236901 8.22248 7.755537 C 9.747327 6.381435 11.764997 5.691485 14.269689 5.691485 C 16.774382 5.691485 18.673195 6.448111 19.966126 7.958464 C 21.259058 9.468817 21.905524 11.327044 21.905524 13.533145 C 21.905524 15.739246 21.763476 18.40628 21.479378 21.540045 C 21.195281 24.67381 20.844508 27.291562 20.42706 29.390402 C 20.006712 31.492141 19.65304 33.025686 19.360246 33.991036 C 19.067452 34.953487 18.667397 35.930434 18.160081 36.916077 C 17.652764 37.904619 17.061378 38.696032 16.388822 39.296115 C 14.878469 40.655722 12.863699 41.336976 10.341612 41.336976 Z M 10.915604 36.043493 C 12.814417 36.043493 14.031976 34.292527 14.57118 30.793494 C 14.93065 28.474334 15.29012 25.589879 15.646691 22.13433 C 16.006161 18.68168 16.185896 16.249461 16.185896 14.84347 C 16.185896 13.440379 15.956878 12.44314 15.501743 11.860451 C 15.046608 11.277762 14.400142 10.987867 13.562346 10.987867 C 11.825875 10.987867 10.6518 12.744631 10.040121 16.258158 C 9.680651 18.322211 9.321182 21.122596 8.964611 24.659316 C 8.605141 28.196035 8.425406 30.689132 8.425406 32.138607 C 8.425406 33.590981 8.660221 34.602715 9.13275 35.179606 C 9.60238 35.753598 10.196665 36.043493 10.915604 36.043493 Z M 10.915604 36.043493 " stroke="#ffffff" stroke-width="3.446032" stroke-opacity="1" stroke-miterlimit="4"/><path stroke-linecap="butt" transform="matrix(1.347471, 0, 0, 1.347471, 124.795801, 20.15511)" fill="none" stroke-linejoin="miter" d="M 21.166032 40.461493 C 21.166032 40.760085 20.963105 40.91083 20.560151 40.91083 L 15.513079 41.090565 C 15.28986 41.07607 15.12462 40.934022 15.020257 40.664419 L 9.390496 26.395787 L 7.819265 40.371625 C 7.775781 40.731095 7.587349 40.916628 7.259768 40.934022 L 2.569267 41.090565 C 2.241685 41.058676 2.076445 40.916628 2.076445 40.664419 L 5.958139 6.903246 C 5.987129 6.633644 6.053805 6.45101 6.158167 6.355344 C 6.265428 6.25678 7.056841 6.143721 8.538205 6.019066 C 10.016669 5.891512 11.990855 5.827736 14.457861 5.827736 C 16.927767 5.827736 18.829478 6.479999 20.168793 7.790325 C 21.505209 9.097751 22.174866 10.78494 22.174866 12.848993 C 22.174866 14.913045 21.928456 16.733586 21.435634 18.310615 C 20.942813 19.887644 20.128208 21.30523 18.98892 22.560476 C 17.852532 23.81862 16.432046 24.752082 14.727463 25.36376 L 21.099356 40.19189 C 21.14284 40.281758 21.166032 40.371625 21.166032 40.461493 Z M 11.115372 11.054543 L 9.860126 22.201006 C 12.628624 22.038665 14.533234 20.78052 15.579755 18.432371 C 16.147949 17.148136 16.432046 15.843608 16.432046 14.518788 C 16.432046 13.196867 16.159545 12.269203 15.614542 11.738695 C 15.06954 11.208187 14.281025 10.941484 13.248999 10.941484 C 12.216973 10.941484 11.50673 10.97917 11.115372 11.054543 Z M 11.115372 11.054543 " stroke="#ffffff" stroke-width="3.446032" stroke-opacity="1" stroke-miterlimit="4"/><g clip-path="url(#7b54a2c835)"><path stroke-linecap="butt" transform="matrix(1.347471, 0, 0, 1.347471, 155.987308, 20.15511)" fill="none" stroke-linejoin="miter" d="M 16.165268 6.566968 L 18.788818 40.348434 C 18.788818 40.693409 18.594589 40.878942 18.206129 40.91083 L 13.515628 41.090565 C 13.202541 41.090565 13.045998 40.948516 13.045998 40.664419 L 12.70972 33.260501 L 7.616264 33.463427 L 5.934873 40.371625 C 5.891389 40.58035 5.830511 40.722398 5.755138 40.797771 C 5.679766 40.873144 5.546414 40.916628 5.352184 40.934022 L 0.708066 41.090565 C 0.409474 41.090565 0.258729 40.948516 0.258729 40.664419 L 10.106463 6.723511 C 10.210825 6.39593 10.413751 6.224892 10.712343 6.207498 L 15.649255 6.027763 C 15.962342 6.045157 16.13338 6.224892 16.165268 6.566968 Z M 11.924104 15.808821 L 8.784541 28.685957 L 12.506793 28.549707 Z M 11.924104 15.808821 " stroke="#ffffff" stroke-width="3.446032" stroke-opacity="1" stroke-miterlimit="4"/></g><g fill="#070707" fill-opacity="1"><g transform="translate(2.404933, 75.401404)"><g><path d="M 22.3125 -46.40625 L 25.84375 -0.875 C 25.84375 -0.414062 25.582031 -0.164062 25.0625 -0.125 L 18.734375 0.125 C 18.316406 0.125 18.109375 -0.0664062 18.109375 -0.453125 L 17.65625 -10.421875 L 10.796875 -10.15625 L 8.53125 -0.84375 C 8.46875 -0.5625 8.382812 -0.367188 8.28125 -0.265625 C 8.175781 -0.171875 7.992188 -0.113281 7.734375 -0.09375 L 1.484375 0.125 C 1.078125 0.125 0.875 -0.0664062 0.875 -0.453125 L 14.140625 -46.1875 C 14.285156 -46.632812 14.5625 -46.867188 14.96875 -46.890625 L 21.609375 -47.125 C 22.035156 -47.101562 22.269531 -46.863281 22.3125 -46.40625 Z M 16.59375 -33.953125 L 12.359375 -16.59375 L 17.375 -16.78125 Z M 16.59375 -33.953125 "/></g></g></g><g fill="#070707" fill-opacity="1"><g transform="translate(31.541187, 75.401404)"><g><path d="M 25.71875 -39.8125 L 20.640625 -40.328125 C 18.804688 -40.328125 17.390625 -39.882812 16.390625 -39 C 15.316406 -38.007812 14.523438 -36.109375 14.015625 -33.296875 C 13.515625 -30.484375 13.03125 -26.742188 12.5625 -22.078125 C 12.101562 -17.410156 11.875 -14.046875 11.875 -11.984375 C 11.875 -9.921875 12.207031 -8.457031 12.875 -7.59375 C 13.539062 -6.738281 14.332031 -6.3125 15.25 -6.3125 C 16.164062 -6.3125 16.90625 -6.320312 17.46875 -6.34375 L 19.46875 -23.484375 C 19.550781 -23.929688 19.8125 -24.175781 20.25 -24.21875 L 25.9375 -24.421875 C 26.476562 -24.398438 26.75 -24.160156 26.75 -23.703125 L 24.21875 -1.03125 C 24.132812 -0.582031 23.859375 -0.328125 23.390625 -0.265625 C 20.710938 0.128906 17.453125 0.328125 13.609375 0.328125 C 8.992188 0.328125 6.03125 -1.894531 4.71875 -6.34375 C 4.351562 -7.570312 4.171875 -8.789062 4.171875 -10 C 4.171875 -11.207031 4.210938 -12.640625 4.296875 -14.296875 C 4.535156 -20.222656 5.238281 -26.367188 6.40625 -32.734375 C 7.195312 -37.171875 8.164062 -40.285156 9.3125 -42.078125 C 10.519531 -43.953125 11.96875 -45.257812 13.65625 -46 C 15.78125 -46.925781 18.050781 -47.390625 20.46875 -47.390625 C 22.882812 -47.390625 24.492188 -47.320312 25.296875 -47.1875 C 26.109375 -47.0625 26.5625 -46.988281 26.65625 -46.96875 C 26.90625 -46.894531 27.03125 -46.644531 27.03125 -46.21875 L 26.359375 -40.59375 C 26.273438 -40.070312 26.0625 -39.8125 25.71875 -39.8125 Z M 25.71875 -39.8125 "/></g></g></g><g fill="#070707" fill-opacity="1"><g transform="translate(60.526323, 75.401404)"><g><path d="M 31.4375 -46.40625 L 26.265625 -0.84375 C 26.179688 -0.382812 25.929688 -0.132812 25.515625 -0.09375 L 19.28125 0.125 C 18.84375 0.125 18.625 -0.0664062 18.625 -0.453125 L 20.859375 -20.3125 L 13.171875 -20.046875 L 11 -0.84375 C 10.9375 -0.363281 10.675781 -0.113281 10.21875 -0.09375 L 3.984375 0.125 C 3.546875 0.125 3.328125 -0.0664062 3.328125 -0.453125 L 8.53125 -46.1875 C 8.601562 -46.613281 8.863281 -46.847656 9.3125 -46.890625 L 15.390625 -47.125 C 15.910156 -47.101562 16.171875 -46.863281 16.171875 -46.40625 L 13.96875 -27.140625 L 21.671875 -27.421875 L 23.796875 -46.1875 C 23.847656 -46.632812 24.117188 -46.867188 24.609375 -46.890625 L 30.65625 -47.125 C 31.175781 -47.101562 31.4375 -46.863281 31.4375 -46.40625 Z M 31.4375 -46.40625 "/></g></g></g><g fill="#070707" fill-opacity="1"><g transform="translate(92.624564, 75.401404)"><g><path d="M 14.46875 0.453125 C 11.070312 0.453125 8.503906 -0.550781 6.765625 -2.5625 C 5.035156 -4.582031 4.171875 -7.101562 4.171875 -10.125 C 4.171875 -17.820312 4.945312 -25.429688 6.5 -32.953125 C 7.726562 -38.859375 9.429688 -42.804688 11.609375 -44.796875 C 13.660156 -46.648438 16.375 -47.578125 19.75 -47.578125 C 23.125 -47.578125 25.679688 -46.554688 27.421875 -44.515625 C 29.171875 -42.484375 30.046875 -39.984375 30.046875 -37.015625 C 30.046875 -34.046875 29.851562 -30.445312 29.46875 -26.21875 C 29.082031 -22 28.609375 -18.472656 28.046875 -15.640625 C 27.484375 -12.804688 27.003906 -10.738281 26.609375 -9.4375 C 26.222656 -8.144531 25.6875 -6.832031 25 -5.5 C 24.3125 -4.164062 23.515625 -3.097656 22.609375 -2.296875 C 20.578125 -0.460938 17.863281 0.453125 14.46875 0.453125 Z M 15.234375 -6.6875 C 17.796875 -6.6875 19.4375 -9.039062 20.15625 -13.75 C 20.644531 -16.875 21.128906 -20.765625 21.609375 -25.421875 C 22.097656 -30.078125 22.34375 -33.351562 22.34375 -35.25 C 22.34375 -37.144531 22.035156 -38.484375 21.421875 -39.265625 C 20.804688 -40.046875 19.929688 -40.4375 18.796875 -40.4375 C 16.460938 -40.4375 14.882812 -38.070312 14.0625 -33.34375 C 13.570312 -30.5625 13.082031 -26.785156 12.59375 -22.015625 C 12.113281 -17.253906 11.875 -13.894531 11.875 -11.9375 C 11.875 -9.988281 12.191406 -8.625 12.828125 -7.84375 C 13.460938 -7.070312 14.265625 -6.6875 15.234375 -6.6875 Z M 15.234375 -6.6875 "/></g></g></g><g fill="#070707" fill-opacity="1"><g transform="translate(124.269446, 75.401404)"><g><path d="M 29.046875 -0.71875 C 29.046875 -0.320312 28.773438 -0.125 28.234375 -0.125 L 21.4375 0.125 C 21.132812 0.101562 20.910156 -0.0859375 20.765625 -0.453125 L 13.171875 -19.671875 L 11.0625 -0.84375 C 11 -0.363281 10.75 -0.113281 10.3125 -0.09375 L 3.984375 0.125 C 3.546875 0.0820312 3.328125 -0.109375 3.328125 -0.453125 L 8.546875 -45.953125 C 8.585938 -46.304688 8.675781 -46.550781 8.8125 -46.6875 C 8.957031 -46.820312 10.023438 -46.972656 12.015625 -47.140625 C 14.015625 -47.304688 16.675781 -47.390625 20 -47.390625 C 23.332031 -47.390625 25.898438 -46.507812 27.703125 -44.75 C 29.503906 -42.988281 30.40625 -40.71875 30.40625 -37.9375 C 30.40625 -35.15625 30.070312 -32.703125 29.40625 -30.578125 C 28.738281 -28.453125 27.640625 -26.539062 26.109375 -24.84375 C 24.578125 -23.15625 22.664062 -21.894531 20.375 -21.0625 L 28.953125 -1.09375 C 29.015625 -0.96875 29.046875 -0.84375 29.046875 -0.71875 Z M 15.5 -40.359375 L 13.8125 -25.328125 C 17.539062 -25.546875 20.109375 -27.238281 21.515625 -30.40625 C 22.285156 -32.144531 22.671875 -33.90625 22.671875 -35.6875 C 22.671875 -37.46875 22.300781 -38.710938 21.5625 -39.421875 C 20.832031 -40.140625 19.769531 -40.5 18.375 -40.5 C 16.988281 -40.5 16.03125 -40.453125 15.5 -40.359375 Z M 15.5 -40.359375 "/></g></g></g><g fill="#070707" fill-opacity="1"><g transform="translate(155.460952, 75.401404)"><g><path d="M 22.3125 -46.40625 L 25.84375 -0.875 C 25.84375 -0.414062 25.582031 -0.164062 25.0625 -0.125 L 18.734375 0.125 C 18.316406 0.125 18.109375 -0.0664062 18.109375 -0.453125 L 17.65625 -10.421875 L 10.796875 -10.15625 L 8.53125 -0.84375 C 8.46875 -0.5625 8.382812 -0.367188 8.28125 -0.265625 C 8.175781 -0.171875 7.992188 -0.113281 7.734375 -0.09375 L 1.484375 0.125 C 1.078125 0.125 0.875 -0.0664062 0.875 -0.453125 L 14.140625 -46.1875 C 14.285156 -46.632812 14.5625 -46.867188 14.96875 -46.890625 L 21.609375 -47.125 C 22.035156 -47.101562 22.269531 -46.863281 22.3125 -46.40625 Z M 16.59375 -33.953125 L 12.359375 -16.59375 L 17.375 -16.78125 Z M 16.59375 -33.953125 "/></g></g></g></svg>