<?xml version="1.0" standalone="no"?>
<!DOCTYPE svg PUBLIC "-//W3C//DTD SVG 20010904//EN"
 "http://www.w3.org/TR/2001/REC-SVG-20010904/DTD/svg10.dtd">
<svg version="1.0" xmlns="http://www.w3.org/2000/svg"
 width="250.000000pt" height="150.000000pt" viewBox="0 0 250.000000 150.000000"
 preserveAspectRatio="xMidYMid meet">

<g transform="translate(0.000000,150.000000) scale(0.100000,-0.100000)"
fill="#000000" stroke="none">
<path d="M614 1060 c-125 -8 -193 -24 -210 -51 -3 -5 -16 -1 -30 7 -27 19 -96
22 -188 10 -49 -6 -66 -14 -92 -40 -18 -18 -36 -45 -40 -61 -4 -15 0 -97 9
-183 19 -186 19 -187 117 -178 36 4 90 9 120 11 94 9 134 16 146 26 7 6 21 6
39 -1 16 -6 47 -8 69 -5 33 5 447 24 531 25 11 0 62 -3 112 -6 54 -3 105 -2
122 4 16 6 33 7 37 2 5 -4 43 -10 85 -14 66 -6 79 -4 100 12 23 19 23 19 38 0
13 -15 38 -20 136 -29 66 -5 140 -12 165 -14 171 -16 185 -17 204 -3 15 12 21
40 33 144 19 172 15 226 -22 264 -36 37 -80 50 -182 52 -60 1 -84 -2 -106 -16
-15 -10 -27 -14 -27 -9 0 5 -12 16 -28 25 -36 21 -331 43 -367 26 -17 -7 -32
-7 -56 1 -40 14 -189 14 -225 1 -19 -8 -30 -8 -38 0 -11 11 -245 11 -452 0z
m419 -37 c3 -5 8 -88 12 -185 l7 -178 -71 0 -71 0 0 60 c0 33 -4 60 -10 60 -6
0 -10 -26 -10 -59 0 -58 -1 -59 -31 -65 -51 -10 -99 -7 -104 7 -2 6 -6 90 -10
185 l-6 172 70 0 71 0 0 -61 c0 -42 4 -59 12 -57 8 3 11 24 9 60 -2 55 -2 57
26 61 50 7 102 7 106 0z m307 -29 c22 -22 25 -34 29 -110 4 -115 -5 -171 -34
-200 -22 -22 -32 -24 -118 -24 -89 0 -96 2 -121 26 -25 26 -26 30 -26 148 0
77 5 130 13 146 18 36 68 50 157 43 61 -4 80 -10 100 -29z m-626 -31 c4 -31 3
-60 -1 -64 -4 -4 -39 -9 -78 -11 l-70 -3 0 -54 c0 -36 4 -56 13 -59 10 -3 12
8 10 44 l-3 49 66 3 66 3 7 -62 c3 -34 6 -83 6 -109 l0 -48 -115 -7 c-168 -10
-179 -1 -190 167 -13 188 -9 192 251 206 31 2 31 1 38 -55z m895 48 c102 -6
116 -10 132 -30 38 -46 19 -151 -27 -151 -21 0 -17 -14 9 -25 20 -9 22 -18 25
-87 l3 -78 -71 0 -70 0 0 65 0 64 -34 7 c-19 3 -39 3 -45 -1 -6 -3 -11 -33
-11 -66 l0 -60 -67 3 -68 3 2 100 c2 55 5 137 9 183 l6 82 46 -1 c26 0 98 -4
161 -8z m-1249 -48 c30 -27 31 -32 45 -173 8 -80 11 -148 7 -152 -4 -4 -34 -8
-67 -10 l-60 -3 -5 34 c-3 19 -11 36 -18 39 -9 3 -11 -6 -6 -36 7 -46 2 -49
-81 -54 l-50 -2 -7 44 c-3 25 -10 97 -13 160 l-7 115 26 25 c27 24 76 36 163
39 34 1 49 -5 73 -26z m1681 1 c43 -22 48 -55 33 -205 -8 -74 -16 -138 -17
-144 -3 -9 -86 -9 -120 1 -14 4 -16 12 -11 45 4 24 3 39 -4 39 -13 0 -22 -24
-22 -57 0 -25 -1 -25 -62 -18 -35 4 -66 10 -70 14 -3 3 0 65 8 136 7 72 14
136 14 143 0 8 14 27 30 44 30 30 31 30 113 23 45 -4 94 -13 108 -21z"/>
<path d="M1210 839 c0 -51 4 -78 10 -74 6 3 10 40 10 81 0 43 -4 74 -10 74 -6
0 -10 -34 -10 -81z"/>
<path d="M1537 904 c-13 -14 5 -24 44 -24 21 0 39 5 39 10 0 6 -11 10 -24 10
-13 0 -31 2 -38 5 -8 3 -17 3 -21 -1z"/>
<path d="M761 572 c-5 -10 -9 -45 -10 -79 l0 -62 57 -7 c43 -5 63 -3 83 9 23
13 28 13 33 1 7 -19 65 -18 73 1 5 14 7 14 22 1 14 -13 48 -16 177 -15 87 0
176 2 196 6 l37 5 0 78 -1 79 -329 0 c-301 0 -330 -2 -338 -17z m102 2 c26 -5
37 -12 37 -24 0 -15 -7 -17 -42 -14 -37 3 -39 3 -12 -5 45 -12 54 -19 54 -45
0 -36 -22 -47 -82 -44 -41 2 -54 7 -56 21 -3 14 5 17 45 18 l48 2 -40 6 c-35
5 -40 10 -43 34 -6 51 16 63 91 51z m547 -14 c0 -16 -7 -20 -37 -22 l-38 -1
38 -4 c28 -3 37 -9 37 -23 0 -15 -9 -20 -42 -23 l-43 -4 48 -1 c40 -2 48 -5
45 -19 -3 -15 -16 -19 -71 -21 l-67 -3 0 65 c0 72 -1 71 93 75 31 1 37 -2 37
-19z m-400 -9 c0 -11 -4 -22 -9 -25 -5 -4 -12 -24 -16 -46 -6 -34 -10 -40 -32
-40 -24 0 -25 2 -20 41 4 29 1 42 -9 46 -8 3 -14 14 -14 24 0 16 8 19 50 19
43 0 50 -3 50 -19z m109 5 c7 -8 11 -36 9 -63 -3 -42 -6 -49 -30 -57 -18 -7
-35 -6 -53 2 -22 10 -25 18 -25 60 0 26 5 53 12 60 17 17 73 15 87 -2z m149
-18 c2 -18 -1 -28 -9 -28 -10 0 -10 -3 -1 -12 7 -7 12 -22 12 -35 0 -18 -6
-23 -25 -23 -18 0 -25 5 -25 20 0 28 -28 25 -32 -2 -2 -15 -11 -24 -25 -26
-22 -3 -23 0 -23 68 l0 71 63 -3 c59 -3 62 -4 65 -30z"/>
<path d="M1072 505 c0 -16 2 -22 5 -12 2 9 2 23 0 30 -3 6 -5 -1 -5 -18z"/>
<path d="M1198 523 c7 -3 16 -2 19 1 4 3 -2 6 -13 5 -11 0 -14 -3 -6 -6z"/>
</g>
</svg>
